<svg xmlns="http://www.w3.org/2000/svg" viewBox="0 0 24 24" fill="currentColor"><path d="M22.46 6c-.77.35-1.6.58-2.46.69a4.2 4.2 0 001.84-2.32 8.27 8.27 0 01-2.64 1A4.16 4.16 0 0016.11 4c-2.3 0-4.16 1.86-4.16 4.15 0 .33.04.65.11.96-3.46-.17-6.53-1.83-8.59-4.34a4.13 4.13 0 00-.56 2.09c0 1.44.73 2.71 1.85 3.45a4.1 4.1 0 01-1.88-.52v.05c0 2.01 1.43 3.68 3.32 4.06a4.2 4.2 0 01-1.88.07 4.16 4.16 0 003.89 2.89A8.35 8.35 0 012 19.54a11.8 11.8 0 006.29 1.84c7.55 0 11.68-6.25 11.68-11.68l-.01-.53A8.27 8.27 0 0022.46 6z"/></svg>