<svg xmlns="http://www.w3.org/2000/svg" viewBox="0 0 32 32" fill="currentColor"><path d="M16 2.938A13.063 13.063 0 002.938 16c0 2.305.625 4.469 1.813 6.406L2 30l7.75-2.438A13.056 13.056 0 0016 29.063 13.063 13.063 0 0029.063 16 13.063 13.063 0 0016 2.938zm0 23.625a10.56 10.56 0 01-5.375-1.5l-.375-.25-4.625 1.438 1.5-4.5-.25-.375a10.682 10.682 0 1119.125-5.812A10.682 10.682 0 0116 26.563zm5.75-7.938c-.313-.156-1.875-.938-2.156-1.063-.281-.125-.5-.188-.719.125s-.813 1.063-1 1.281c-.187.219-.375.25-.688.125-.281-.125-1.156-.406-2.188-1.313-.813-.719-1.375-1.594-1.563-1.875-.156-.281-.031-.438.125-.594.125-.125.313-.344.469-.5.156-.187.219-.313.344-.531.125-.219.062-.406 0-.531s-.719-1.75-.969-2.406c-.25-.594-.5-.5-.719-.5h-.625c-.188 0-.5.063-.75.344s-.969.938-.969 2.281 1 2.594 1.125 2.781c.125.188 2.031 3.125 5.062 4.375.707.305 1.258.488 1.688.625.707.219 1.344.188 1.844.125.562-.094 1.875-.75 2.125-1.469.25-.719.25-1.344.188-1.469-.094-.125-.281-.188-.594-.344z"/></svg>